# xmcd
#
# Track frame offsets:
#	150
#	15479
#	34620
#	67785
#	94338
#	137121
#	179511
#	210492
#	231808
#	263082
#	301870
#
# Disc length: 4686 seconds
#
# Revision: 1
# Processed by: cddbd v1.5.2PL0 Copyright (c) Steve Scherf et al.
# Submitted via: audiograbber 1.83.01
#
DISCID=89124c0b
DTITLE=Iron Maiden - From Fear To Eternity
DYEAR=2011
DGENRE=Heavy Metal
TTITLE0=Be quick or be dead
TTITLE1=Tailgunner
TTITLE2=No more lies
TTITLE3=Coming home
TTITLE4=The clansman (live)
TTITLE5=For the greater good of god
TTITLE6=These colours don't run
TTITLE7=Bring your daughter... to the slaughter
TTITLE8=Afraid to shoot strangers
TTITLE9=Dance of death
TTITLE10=When the wild wind blows
EXTD=
EXTT0=
EXTT1=
EXTT2=
EXTT3=
EXTT4=
EXTT5=
EXTT6=
EXTT7=
EXTT8=
EXTT9=
EXTT10=
PLAYORDER=
